<mxfile host="app.diagrams.net" modified="2023-11-09T16:39:37.108Z" agent="Mozilla/5.0 (Macintosh; Intel Mac OS X 10_15_7) AppleWebKit/537.36 (KHTML, like Gecko) Chrome/119.0.0.0 Safari/537.36" etag="L-Y2lasblwfKmCEjvr4A" version="22.1.0" type="github">
  <diagram name="Страница — 1" id="-huWrvzhIRPL-7FePhcu">
    <mxGraphModel dx="1555" dy="1420" grid="1" gridSize="10" guides="1" tooltips="1" connect="1" arrows="1" fold="1" page="1" pageScale="1" pageWidth="1654" pageHeight="1169" math="0" shadow="0">
      <root>
        <mxCell id="0" />
        <mxCell id="1" parent="0" />
        <mxCell id="211ug2n4QtESpDDz7pXh-1" value="Actor" style="shape=umlActor;verticalLabelPosition=bottom;verticalAlign=top;html=1;outlineConnect=0;" parent="1" vertex="1">
          <mxGeometry x="80" y="100" width="30" height="60" as="geometry" />
        </mxCell>
        <mxCell id="211ug2n4QtESpDDz7pXh-2" value="Actor" style="shape=umlActor;verticalLabelPosition=bottom;verticalAlign=top;html=1;outlineConnect=0;" parent="1" vertex="1">
          <mxGeometry x="80" y="230" width="30" height="60" as="geometry" />
        </mxCell>
        <mxCell id="211ug2n4QtESpDDz7pXh-3" value="Actor" style="shape=umlActor;verticalLabelPosition=bottom;verticalAlign=top;html=1;outlineConnect=0;" parent="1" vertex="1">
          <mxGeometry x="80" y="360" width="30" height="60" as="geometry" />
        </mxCell>
        <mxCell id="211ug2n4QtESpDDz7pXh-4" value="Actor" style="shape=umlActor;verticalLabelPosition=bottom;verticalAlign=top;html=1;outlineConnect=0;" parent="1" vertex="1">
          <mxGeometry x="80" y="490" width="30" height="60" as="geometry" />
        </mxCell>
        <mxCell id="t2ZdEfVuAgnnPO7b86gj-1" value="" style="rounded=0;whiteSpace=wrap;html=1;" vertex="1" parent="1">
          <mxGeometry x="380" y="270" width="120" height="60" as="geometry" />
        </mxCell>
        <mxCell id="qdEnkMJBV1Y_F-VeBBrM-1" value="" style="ellipse;whiteSpace=wrap;html=1;" vertex="1" parent="1">
          <mxGeometry x="240" y="100" width="120" height="80" as="geometry" />
        </mxCell>
        <mxCell id="t2ZdEfVuAgnnPO7b86gj-2" value="" style="shape=cylinder3;whiteSpace=wrap;html=1;boundedLbl=1;backgroundOutline=1;size=15;" vertex="1" parent="1">
          <mxGeometry x="650" y="120" width="60" height="80" as="geometry" />
        </mxCell>
        <mxCell id="t2ZdEfVuAgnnPO7b86gj-3" value="" style="ellipse;shape=cloud;whiteSpace=wrap;html=1;" vertex="1" parent="1">
          <mxGeometry x="560" y="370" width="510" height="190" as="geometry" />
        </mxCell>
      </root>
    </mxGraphModel>
  </diagram>
</mxfile>
